<svg width="44" height="45" viewBox="0 0 44 45" fill="none" xmlns="http://www.w3.org/2000/svg">
<rect x="0.75" y="0.75" width="42.5" height="43.1471" rx="6.25" stroke="#393939" stroke-opacity="0.35" stroke-width="0.5"/>
<path d="M30.7386 17.7108C30.7525 17.912 30.7525 18.1132 30.7525 18.3144C30.7525 24.4503 26.2157 31.5204 17.9239 31.5204C15.3693 31.5204 12.9962 30.7587 11 29.4367C11.363 29.4798 11.7119 29.4942 12.0888 29.4942C14.1967 29.4942 16.137 28.7614 17.6865 27.5112C15.7043 27.468 14.0431 26.1316 13.4708 24.2923C13.75 24.3354 14.0292 24.3641 14.3223 24.3641C14.7272 24.3641 15.132 24.3066 15.5089 24.2061C13.4429 23.7749 11.8934 21.9069 11.8934 19.6508V19.5933C12.4936 19.9382 13.1916 20.1537 13.9314 20.1825C12.7169 19.349 11.9213 17.9264 11.9213 16.3169C11.9213 15.4547 12.1446 14.6644 12.5355 13.9746C14.755 16.7911 18.0913 18.6305 21.8324 18.8317C21.7626 18.4868 21.7207 18.1276 21.7207 17.7683C21.7207 15.2104 23.7309 13.1268 26.2296 13.1268C27.5278 13.1268 28.7004 13.6873 29.524 14.5926C30.543 14.3914 31.5202 14.0034 32.3857 13.4717C32.0506 14.5495 31.3387 15.4548 30.4035 16.0295C31.3109 15.929 32.1903 15.6703 32.9999 15.3111C32.3858 16.2307 31.618 17.0498 30.7386 17.7108Z" fill="#393939"/>
</svg>
