<svg width="44" height="44" viewBox="0 0 44 44" fill="none" xmlns="http://www.w3.org/2000/svg">
<rect x="0.75" y="1.07349" width="42.5" height="42.5" rx="6.25" stroke="#393939" stroke-opacity="0.35" stroke-width="0.5"/>
<g clip-path="url(#clip0_2481_1694)">
<path d="M16.6839 30.5731H12.693V17.7211H16.6839V30.5731ZM14.6863 15.968C13.4101 15.968 12.375 14.9109 12.375 13.6348C12.375 13.0218 12.6185 12.4339 13.052 12.0004C13.4854 11.567 14.0733 11.3235 14.6863 11.3235C15.2993 11.3235 15.8872 11.567 16.3206 12.0004C16.7541 12.4339 16.9976 13.0218 16.9976 13.6348C16.9976 14.9109 15.962 15.968 14.6863 15.968ZM31.6207 30.5731H27.6384V24.3168C27.6384 22.8258 27.6083 20.9137 25.5634 20.9137C23.4884 20.9137 23.1705 22.5336 23.1705 24.2094V30.5731H19.1838V17.7211H23.0115V19.4742H23.0673C23.6002 18.4645 24.9017 17.3988 26.8434 17.3988C30.8825 17.3988 31.625 20.0586 31.625 23.5133V30.5731H31.6207Z" fill="#393939"/>
</g>
<defs>
<clipPath id="clip0_2481_1694">
<rect width="22" height="22" fill="white" transform="translate(11 11.3235)"/>
</clipPath>
</defs>
</svg>
